<svg
                                className="absolute w-full top-60 left-0 h-[2365px] hidden sm:block"
                                viewBox="0 0 501 2165"
                                fill="none"
                            >
                                <path
                                    ref={pathRef}
                                    // d="M280 1H514C540.51 1 562 22.4903 562 49V284.5C562 311.01 540.51 332.5 514 332.5H55C28.4903 332.5 7 353.99 7 380.5V602C7 628.51 28.4903 650 55 650H514C540.51 650 562 671.49 562 698V935.5C562 962.01 540.51 983.5 514 983.5H49.5C22.9903 983.5 1.5 1004.99 1.5 1031.5V1234C1.5 1260.51 22.9903 1282 49.5 1282H514C540.51 1282 562 1303.49 562 1330V1595C562 1621.51 540.51 1643 514 1643H49.5C22.9903 1643 1.5 1664.49 1.5 1691V1921C1.5 1947.51 22.9903 1969 49.5 1969H514C540.51 1969 562 1990.49 562 2017V2242C562 2268.51 540.51 2290 514 2290H49.5C22.9903 2290 1.5 2311.49 1.5 2338V2565C1.5 2591.51 22.9903 2613 49.5 2613H514C540.51 2613 562 2634.49 562 2661V2820V2888C562 2914.51 540.51 2936 514 2936H49.5C22.9903 2936 1.5 2957.49 1.5 2984V3209.5C1.5 3236.01 22.9903 3257.5 49.5 3257.5H514C540.51 3257.5 562 3278.99 562 3305.5V3522"
                                    d="M1 1.712h467c17.673 0 32 14.327 32 32v274c0 17.673-14.327 32-32 32H33c-17.673 0-32 14.327-32 32v274c0 17.673 14.327 32 32 32h435c17.673 0 32 14.327 32 32v319.998c0 17.68-14.327 32-32 32H33c-17.673 0-32 14.33-32 32v303c0 17.68 14.327 32 32 32h435c17.673 0 32 14.33 32 32v325"
                                    strokeWidth="2"
                                    stroke="#396466"
                                    strokeDasharray="5 5"
                                >
                                    <animate
                                        attributeName="stroke-dashoffset"
                                        from="120"
                                        to="0"
                                        dur="8s"
                                        repeatCount="indefinite"
                                    />
                                </path>
                            </svg>