<?xml version="1.0" encoding="utf-8"?>
<!-- Generator: Adobe Illustrator 28.1.0, SVG Export Plug-In . SVG Version: 6.00 Build 0)  -->
<svg version="1.1" id="Layer_1" xmlns="http://www.w3.org/2000/svg" xmlns:xlink="http://www.w3.org/1999/xlink" x="0px" y="0px"
	 viewBox="0 0 1260.2 157.9" style="enable-background:new 0 0 1260.2 157.9;" xml:space="preserve">
<style type="text/css">
	.st0{fill:#16CE8A;}
</style>
<g>
	<g>
		<g>
			<path class="st0" d="M378.77,43.44v79.29h-14.38V67.57l-21.52,32.39h-14.38l-21.41-32.39v55.16h-14.38V46.05v-2.61h14.38h0.79
				l27.86,41.79l27.86-41.79h0.79H378.77z"/>
			<path class="st0" d="M394.63,122.73V43.44h14.38v79.29H394.63z"/>
			<path class="st0" d="M492.05,91.47v16.08c0,8.38-6.8,15.18-15.18,15.18h-53.24v-13.48h50.63c1.93,0,3.4-1.47,3.4-3.4V93.17
				c0-1.81-1.47-3.29-3.4-3.29h-36.25c-8.38,0-15.18-6.8-15.18-15.18V58.62c0-8.38,6.8-15.18,15.18-15.18h52.33v13.48h-49.84
				c-1.81,0-3.28,1.47-3.28,3.4V73c0,1.81,1.47,3.28,3.28,3.28h36.36C485.25,76.29,492.05,83.09,492.05,91.47z"/>
			<path class="st0" d="M568.62,43.44h14.27v64.11c0,8.38-6.8,15.18-15.18,15.18h-47.23c-8.38,0-15.18-6.8-15.18-15.18V43.44h14.39
				v62.41c0,1.92,1.47,3.4,3.29,3.4h42.25c1.81,0,3.4-1.47,3.4-3.4V43.44z"/>
			<path class="st0" d="M661.84,43.44h14.27v79.29h-14.27L612.91,65.3v57.43h-14.38V43.44h14.38l48.93,57.43V43.44z"/>
			<path class="st0" d="M773.98,43.44l35.34,79.29h-14.27l-8.72-19.37h-41.68l-8.61,19.37h-14.38l35.45-79.29H773.98z M780.32,89.88
				l-14.84-33.19l-14.84,33.19H780.32z"/>
			<path class="st0" d="M831.18,78.89v28.66c0,1.81,1.47,3.4,3.29,3.4h29.56v11.78h-32.06c-8.38,0-15.18-6.8-15.18-15.18V78.89
				c0-8.38,6.8-15.18,15.18-15.18h32.06V75.5h-29.56C832.66,75.5,831.18,76.97,831.18,78.89z"/>
			<path class="st0" d="M929.84,78.89v43.83h-14.39v-6.8l-6.68,6.8H888.5c-8.38,0-15.18-6.8-15.18-15.18v-4.64
				c0-8.38,6.8-15.18,15.18-15.18h26.96v-8.84c0-1.93-1.47-3.4-3.29-3.4h-18.57c-1.93,0-3.4,1.47-3.4,3.4v1.7h-14.38v-1.7
				c0-8.38,6.8-15.18,15.18-15.18h23.67C923.04,63.72,929.84,70.51,929.84,78.89z M915.45,99.51h-24.46c-1.81,0-3.29,1.59-3.29,3.4
				v4.64c0,1.81,1.47,3.4,3.29,3.4h21.18c1.81,0,3.29-1.59,3.29-3.4V99.51z"/>
			<path class="st0" d="M1001.99,43.44v79.29h-14.27v-6.8l-6.8,6.8h-22.77c-8.38,0-15.18-6.8-15.18-15.18V78.89
				c0-8.38,6.8-15.18,15.18-15.18h22.77l6.8,6.68V43.44H1001.99z M987.72,78.89c0-1.93-1.59-3.4-3.4-3.4h-23.67
				c-1.81,0-3.29,1.47-3.29,3.4v28.66c0,1.81,1.47,3.4,3.29,3.4h23.67c1.81,0,3.4-1.59,3.4-3.4V78.89z"/>
			<path class="st0" d="M1030.09,98.72v8.84c0,1.81,1.47,3.4,3.29,3.4h37.15v11.78h-39.64c-8.38,0-15.18-6.8-15.18-15.18V78.89
				c0-8.38,6.8-15.18,15.18-15.18h26.16c8.38,0,15.18,6.8,15.18,15.18v19.82H1030.09z M1030.09,87.73h27.75v-8.84
				c0-1.93-1.47-3.4-3.28-3.4h-21.18c-1.81,0-3.29,1.47-3.29,3.4V87.73z"/>
			<path class="st0" d="M1183.23,78.89v43.83h-14.39V78.89c0-1.93-1.47-3.4-3.4-3.4h-20.61c-1.81,0-3.4,1.47-3.4,3.4v43.83h-14.27
				V78.89c0-1.93-1.59-3.4-3.4-3.4h-20.73c-1.81,0-3.28,1.47-3.28,3.4v43.83h-14.39V63.72h14.39v6.68l6.68-6.68h19.82
				c6,0,11.1,3.4,13.59,8.38l8.38-8.38h19.82C1176.43,63.72,1183.23,70.51,1183.23,78.89z"/>
			<path class="st0" d="M1259.12,63.72l-32.51,70.34c-2.38,5.44-7.82,8.95-13.82,8.95h-18.69v-12.69h17.33
				c1.36,0,2.49-0.79,3.06-1.93l2.6-5.66l-27.18-59.01h14.72l19.82,43.04l19.82-43.04H1259.12z"/>
		</g>
		<g>
			<path class="st0" d="M247.78,119.29L195.09,5.8c-0.46-0.99-1.11-1.85-1.87-2.58l0.02-0.01l-0.02,0.01
				c-0.2-0.19-0.4-0.37-0.61-0.54l0.01-0.01l-0.01,0.01c-1.49-1.17-3.34-1.86-5.3-1.86h-44.16l0,0.01l0-0.01l-6.18,10.82
				l-31.97,55.97l0.06-0.04l-1.97,3.45l-17.81,31.19l-0.04,0.08l-0.02,0.02l-24.83,45.03h0.01l0,0.01l51.52-0.2l17.14-31.08
				l7.75-14.04l-51.49,0.19l0.03-0.03l0.5-0.46l73.03-67l0,0l36.98,79.64l-45.42,42.71h65.74l29.7-27.92
				C248.57,126.62,249.34,122.64,247.78,119.29z M156.22,29.01L156.22,29.01L156.22,29.01L156.22,29.01z M85.85,101.73l72.78-67.53
				l0.24,0.53L85.85,101.73z"/>
			<path class="st0" d="M71.99,0.83c-3.13,0-6.01,1.7-7.52,4.44L2.15,118.28c-1.85,3.35-1.26,7.51,1.45,10.22l28.58,28.58
				L118.35,0.83H71.99z"/>
		</g>
	</g>
	<g>
		<g>
			<path class="st0" d="M378.77,43.44v79.29h-14.38V67.57l-21.52,32.39h-14.38l-21.41-32.39v55.16h-14.38V46.05v-2.61h14.38h0.79
				l27.86,41.79l27.86-41.79h0.79H378.77z"/>
			<path class="st0" d="M394.63,122.73V43.44h14.38v79.29H394.63z"/>
			<path class="st0" d="M492.05,91.47v16.08c0,8.38-6.8,15.18-15.18,15.18h-53.24v-13.48h50.63c1.93,0,3.4-1.47,3.4-3.4V93.17
				c0-1.81-1.47-3.29-3.4-3.29h-36.25c-8.38,0-15.18-6.8-15.18-15.18V58.62c0-8.38,6.8-15.18,15.18-15.18h52.33v13.48h-49.84
				c-1.81,0-3.28,1.47-3.28,3.4V73c0,1.81,1.47,3.28,3.28,3.28h36.36C485.25,76.29,492.05,83.09,492.05,91.47z"/>
			<path class="st0" d="M568.62,43.44h14.27v64.11c0,8.38-6.8,15.18-15.18,15.18h-47.23c-8.38,0-15.18-6.8-15.18-15.18V43.44h14.39
				v62.41c0,1.92,1.47,3.4,3.29,3.4h42.25c1.81,0,3.4-1.47,3.4-3.4V43.44z"/>
			<path class="st0" d="M661.84,43.44h14.27v79.29h-14.27L612.91,65.3v57.43h-14.38V43.44h14.38l48.93,57.43V43.44z"/>
			<path class="st0" d="M773.98,43.44l35.34,79.29h-14.27l-8.72-19.37h-41.68l-8.61,19.37h-14.38l35.45-79.29H773.98z M780.32,89.88
				l-14.84-33.19l-14.84,33.19H780.32z"/>
			<path class="st0" d="M831.18,78.89v28.66c0,1.81,1.47,3.4,3.29,3.4h29.56v11.78h-32.06c-8.38,0-15.18-6.8-15.18-15.18V78.89
				c0-8.38,6.8-15.18,15.18-15.18h32.06V75.5h-29.56C832.66,75.5,831.18,76.97,831.18,78.89z"/>
			<path class="st0" d="M929.84,78.89v43.83h-14.39v-6.8l-6.68,6.8H888.5c-8.38,0-15.18-6.8-15.18-15.18v-4.64
				c0-8.38,6.8-15.18,15.18-15.18h26.96v-8.84c0-1.93-1.47-3.4-3.29-3.4h-18.57c-1.93,0-3.4,1.47-3.4,3.4v1.7h-14.38v-1.7
				c0-8.38,6.8-15.18,15.18-15.18h23.67C923.04,63.72,929.84,70.51,929.84,78.89z M915.45,99.51h-24.46c-1.81,0-3.29,1.59-3.29,3.4
				v4.64c0,1.81,1.47,3.4,3.29,3.4h21.18c1.81,0,3.29-1.59,3.29-3.4V99.51z"/>
			<path class="st0" d="M1001.99,43.44v79.29h-14.27v-6.8l-6.8,6.8h-22.77c-8.38,0-15.18-6.8-15.18-15.18V78.89
				c0-8.38,6.8-15.18,15.18-15.18h22.77l6.8,6.68V43.44H1001.99z M987.72,78.89c0-1.93-1.59-3.4-3.4-3.4h-23.67
				c-1.81,0-3.29,1.47-3.29,3.4v28.66c0,1.81,1.47,3.4,3.29,3.4h23.67c1.81,0,3.4-1.59,3.4-3.4V78.89z"/>
			<path class="st0" d="M1030.09,98.72v8.84c0,1.81,1.47,3.4,3.29,3.4h37.15v11.78h-39.64c-8.38,0-15.18-6.8-15.18-15.18V78.89
				c0-8.38,6.8-15.18,15.18-15.18h26.16c8.38,0,15.18,6.8,15.18,15.18v19.82H1030.09z M1030.09,87.73h27.75v-8.84
				c0-1.93-1.47-3.4-3.28-3.4h-21.18c-1.81,0-3.29,1.47-3.29,3.4V87.73z"/>
			<path class="st0" d="M1183.23,78.89v43.83h-14.39V78.89c0-1.93-1.47-3.4-3.4-3.4h-20.61c-1.81,0-3.4,1.47-3.4,3.4v43.83h-14.27
				V78.89c0-1.93-1.59-3.4-3.4-3.4h-20.73c-1.81,0-3.28,1.47-3.28,3.4v43.83h-14.39V63.72h14.39v6.68l6.68-6.68h19.82
				c6,0,11.1,3.4,13.59,8.38l8.38-8.38h19.82C1176.43,63.72,1183.23,70.51,1183.23,78.89z"/>
			<path class="st0" d="M1259.12,63.72l-32.51,70.34c-2.38,5.44-7.82,8.95-13.82,8.95h-18.69v-12.69h17.33
				c1.36,0,2.49-0.79,3.06-1.93l2.6-5.66l-27.18-59.01h14.72l19.82,43.04l19.82-43.04H1259.12z"/>
		</g>
		<g>
			<path class="st0" d="M247.78,119.29L195.09,5.8c-0.46-0.99-1.11-1.85-1.87-2.58l0.02-0.01l-0.02,0.01
				c-0.2-0.19-0.4-0.37-0.61-0.54l0.01-0.01l-0.01,0.01c-1.49-1.17-3.34-1.86-5.3-1.86h-44.16l0,0.01l0-0.01l-6.18,10.82
				l-31.97,55.97l0.06-0.04l-1.97,3.45l-17.81,31.19l-0.04,0.08l-0.02,0.02l-24.83,45.03h0.01l0,0.01l51.52-0.2l17.14-31.08
				l7.75-14.04l-51.49,0.19l0.03-0.03l0.5-0.46l73.03-67l0,0l36.98,79.64l-45.42,42.71h65.74l29.7-27.92
				C248.57,126.62,249.34,122.64,247.78,119.29z M156.22,29.01L156.22,29.01L156.22,29.01L156.22,29.01z M85.85,101.73l72.78-67.53
				l0.24,0.53L85.85,101.73z"/>
			<path class="st0" d="M71.99,0.83c-3.13,0-6.01,1.7-7.52,4.44L2.15,118.28c-1.85,3.35-1.26,7.51,1.45,10.22l28.58,28.58
				L118.35,0.83H71.99z"/>
		</g>
	</g>
</g>
</svg>
