<?xml version="1.0" encoding="utf-8"?>
<!-- Generator: Adobe Illustrator 28.1.0, SVG Export Plug-In . SVG Version: 6.00 Build 0)  -->
<svg version="1.1" id="Layer_1" xmlns="http://www.w3.org/2000/svg" xmlns:xlink="http://www.w3.org/1999/xlink" x="0px" y="0px"
	 viewBox="0 0 1859.48 278.06" style="enable-background:new 0 0 1859.48 278.06;" xml:space="preserve">
<style type="text/css">
	.st0{fill:#20B486;}
</style>
<g>
	<g>
		<path class="st0" d="M98.57,207.43c-6.25,0-12.02,0.58-17.62-0.16c-6.06-0.8-9.62-5.24-10.89-11.12c-0.6-2.77-0.54-5.71-0.55-8.57
			c-0.03-35.5-0.01-70.99-0.01-106.49c0-2.79,0-5.58,0-9.85c-8.6,8.17-14.11,16.64-18.29,25.88
			c-25.71,56.75,3.96,119.67,64.17,136.39c10.11,2.81,14.67,16.47,8.04,24.75c-3.17,3.96-7.42,5.27-12.65,3.93
			c-43.71-11.15-74.42-37.54-90-79.69C-8.52,103.24,45.59,19.4,129.9,12.26c5.92-0.5,11.91,0.01,17.86-0.25
			c5.08-0.22,6.55,1.89,6.52,6.9c-0.21,30.78-0.11,61.55-0.11,92.33c0.01,26.67,0.05,53.35,0.02,80.02
			c-0.01,9.42-4.75,15.5-12.42,16.23c-9.85,0.94-16.45-5.06-16.49-15.22c-0.07-19.49-0.01-38.98-0.01-58.48c0-28.11,0-56.22,0-84.33
			c0-2.22,0-4.44,0-8.16c-8.64,2.71-16.46,4.83-23.96,7.78c-1.54,0.61-2.62,4.3-2.63,6.58c-0.17,33.85-0.12,67.71-0.12,101.57
			c0,14.77,0.01,29.55,0.01,44.32C98.57,203.38,98.57,205.19,98.57,207.43z"/>
		<path class="st0" d="M232.99,143.77c-9.61,0-18.36,0-28.04,0c0,6.06,0,11.91,0,17.77c0,10.26,0.08,20.52-0.03,30.78
			c-0.13,11.52-6.04,17.26-17.61,17.38c-12.37,0.13-12.34,0.13-12.34-12.21c0-58.06-0.01-116.13-0.02-174.19c0-2.22,0-4.45,0-8.67
			c9.48,4.75,18.18,8.2,25.93,13.12c71.69,45.58,83.62,140.23,25.24,201.89c-17.58,18.57-39.43,30.53-64.56,36.09
			c-7.16,1.59-13.45-2.53-14.21-9.72c-1.26-12.05,0.04-17.27,12.98-20.84c39.23-10.81,67.79-44.91,72.3-85.27
			C232.82,148.1,232.84,146.28,232.99,143.77z M205.49,69.58c0,15.42,0,29.69,0,43.87c8.35,0,16.16,0,24.42,0
			C225.52,96.7,217.62,82.6,205.49,69.58z"/>
	</g>
	<g>
		<path class="st0" d="M312.64,58.82h36.06l38.09,92.92h1.62l38.09-92.92h36.06v138.3h-28.36v-90.02h-1.15l-35.79,89.34h-19.31
			l-35.79-89.68H341v90.36h-28.36V58.82z"/>
		<path class="st0" d="M515.84,58.82v138.3H486.6V58.82H515.84z"/>
		<path class="st0" d="M614.97,98.6c-0.54-5.45-2.86-9.68-6.96-12.7c-4.1-3.02-9.66-4.52-16.68-4.52c-4.77,0-8.8,0.66-12.09,1.99
			c-3.29,1.33-5.8,3.16-7.53,5.5c-1.73,2.34-2.6,5-2.6,7.97c-0.09,2.48,0.44,4.64,1.59,6.48c1.15,1.85,2.74,3.43,4.76,4.76
			c2.03,1.33,4.37,2.48,7.02,3.44c2.66,0.97,5.49,1.79,8.51,2.47l12.43,2.97c6.03,1.35,11.57,3.15,16.61,5.4
			c5.04,2.25,9.41,5.02,13.1,8.31c3.69,3.29,6.56,7.16,8.61,11.62c2.05,4.46,3.1,9.57,3.14,15.33c-0.05,8.46-2.19,15.79-6.45,21.98
			c-4.25,6.19-10.38,10.99-18.37,14.38c-7.99,3.4-17.62,5.1-28.87,5.1c-11.17,0-20.88-1.71-29.14-5.13
			c-8.26-3.42-14.7-8.5-19.31-15.23c-4.62-6.73-7.03-15.07-7.26-25.02h28.3c0.31,4.64,1.65,8.5,4.02,11.58
			c2.36,3.08,5.54,5.4,9.52,6.95c3.98,1.55,8.5,2.33,13.54,2.33c4.95,0,9.26-0.72,12.93-2.16c3.67-1.44,6.52-3.44,8.54-6.01
			s3.04-5.51,3.04-8.85c0-3.11-0.91-5.72-2.74-7.83c-1.82-2.11-4.48-3.92-7.97-5.4c-3.49-1.49-7.76-2.84-12.8-4.05l-15.06-3.78
			c-11.66-2.84-20.87-7.27-27.62-13.3c-6.75-6.03-10.11-14.16-10.06-24.38c-0.05-8.37,2.19-15.69,6.72-21.95
			c4.52-6.26,10.75-11.14,18.67-14.65c7.92-3.51,16.93-5.27,27.01-5.27c10.26,0,19.24,1.76,26.91,5.27
			c7.68,3.51,13.65,8.4,17.93,14.65c4.28,6.26,6.48,13.51,6.62,21.75H614.97z"/>
		<path class="st0" d="M749.9,58.82h29.24v89.82c0,10.09-2.4,18.91-7.19,26.47c-4.79,7.56-11.49,13.45-20.09,17.66
			c-8.6,4.21-18.62,6.31-30.05,6.31c-11.48,0-21.52-2.1-30.12-6.31c-8.6-4.21-15.29-10.1-20.06-17.66
			c-4.77-7.56-7.16-16.39-7.16-26.47V58.82h29.24v87.32c0,5.27,1.16,9.95,3.48,14.05c2.32,4.1,5.59,7.32,9.83,9.66
			c4.23,2.34,9.16,3.51,14.79,3.51c5.67,0,10.61-1.17,14.82-3.51c4.21-2.34,7.47-5.56,9.79-9.66c2.32-4.1,3.48-8.78,3.48-14.05
			V58.82z"/>
		<path class="st0" d="M918.86,58.82v138.3h-25.26l-60.17-87.05h-1.01v87.05h-29.24V58.82h25.66l59.7,86.98h1.22V58.82H918.86z"/>
		<path class="st0" d="M1010.91,197.13h-31.33l47.74-138.3H1065l47.68,138.3h-31.33l-34.64-106.7h-1.08L1010.91,197.13z
			 M1008.95,142.76h74.01v22.83h-74.01V142.76z"/>
		<path class="st0" d="M1170.75,199.15c-10.63,0-19.75-2.26-27.38-6.79c-7.63-4.52-13.48-10.82-17.56-18.88
			c-4.08-8.06-6.11-17.33-6.11-27.82c0-10.62,2.06-19.96,6.18-27.99c4.12-8.04,9.98-14.32,17.59-18.84
			c7.61-4.52,16.66-6.79,27.15-6.79c9.05,0,16.97,1.64,23.77,4.93c6.8,3.29,12.18,7.9,16.14,13.84c3.96,5.94,6.14,12.92,6.55,20.93
			h-27.15c-0.77-5.18-2.78-9.35-6.04-12.53c-3.26-3.17-7.53-4.76-12.8-4.76c-4.46,0-8.34,1.21-11.65,3.61
			c-3.31,2.41-5.89,5.91-7.73,10.5c-1.85,4.59-2.77,10.15-2.77,16.68c0,6.62,0.91,12.25,2.74,16.88c1.82,4.64,4.4,8.17,7.73,10.6
			c3.33,2.43,7.23,3.65,11.68,3.65c3.29,0,6.25-0.68,8.88-2.03c2.64-1.35,4.82-3.32,6.55-5.91c1.73-2.59,2.87-5.71,3.41-9.35h27.15
			c-0.45,7.92-2.6,14.89-6.45,20.9c-3.85,6.01-9.15,10.7-15.9,14.08C1187.98,197.47,1179.98,199.15,1170.75,199.15z"/>
		<path class="st0" d="M1265.16,199.09c-6.62,0-12.52-1.16-17.69-3.48c-5.18-2.32-9.26-5.76-12.26-10.33
			c-2.99-4.57-4.49-10.28-4.49-17.12c0-5.76,1.06-10.6,3.17-14.52c2.12-3.92,5-7.07,8.65-9.45c3.65-2.39,7.8-4.19,12.46-5.4
			s9.56-2.07,14.69-2.57c6.03-0.63,10.89-1.23,14.59-1.79c3.69-0.56,6.37-1.41,8.04-2.53c1.67-1.12,2.5-2.79,2.5-5v-0.41
			c0-4.28-1.34-7.59-4.02-9.93c-2.68-2.34-6.47-3.51-11.38-3.51c-5.18,0-9.3,1.14-12.36,3.41c-3.06,2.27-5.09,5.12-6.08,8.54
			l-26.61-2.16c1.35-6.3,4.01-11.76,7.97-16.38c3.96-4.61,9.08-8.17,15.36-10.67c6.28-2.5,13.56-3.75,21.85-3.75
			c5.76,0,11.29,0.67,16.58,2.03c5.29,1.35,9.99,3.44,14.12,6.28c4.12,2.84,7.37,6.47,9.76,10.91c2.38,4.43,3.58,9.74,3.58,15.9
			v69.96h-27.28v-14.38h-0.81c-1.67,3.24-3.89,6.09-6.68,8.54c-2.79,2.46-6.14,4.37-10.06,5.74
			C1274.82,198.4,1270.3,199.09,1265.16,199.09z M1273.4,179.23c4.23,0,7.97-0.84,11.21-2.53c3.24-1.69,5.78-3.97,7.63-6.85
			c1.85-2.88,2.77-6.15,2.77-9.79v-11.01c-0.9,0.59-2.13,1.11-3.68,1.59c-1.55,0.47-3.3,0.9-5.23,1.28
			c-1.94,0.38-3.87,0.72-5.81,1.01c-1.94,0.29-3.69,0.55-5.27,0.78c-3.38,0.5-6.33,1.28-8.85,2.36c-2.52,1.08-4.48,2.53-5.88,4.36
			c-1.4,1.82-2.09,4.09-2.09,6.79c0,3.92,1.43,6.9,4.29,8.95C1265.35,178.21,1268.99,179.23,1273.4,179.23z"/>
		<path class="st0" d="M1384.15,198.82c-7.88,0-15-2.04-21.37-6.11c-6.37-4.07-11.41-10.08-15.13-18.03
			c-3.72-7.95-5.57-17.7-5.57-29.27c0-11.88,1.91-21.78,5.74-29.68c3.83-7.9,8.93-13.82,15.3-17.76c6.37-3.94,13.36-5.91,20.97-5.91
			c5.81,0,10.66,0.98,14.55,2.94c3.89,1.96,7.05,4.39,9.45,7.29c2.41,2.9,4.24,5.75,5.5,8.54h0.88v-52h28.7v138.3h-28.36v-16.61
			h-1.21c-1.35,2.88-3.25,5.73-5.71,8.54c-2.45,2.81-5.63,5.14-9.52,6.99C1394.47,197.89,1389.74,198.82,1384.15,198.82z
			 M1393.27,175.92c4.64,0,8.57-1.27,11.78-3.82c3.22-2.54,5.7-6.11,7.43-10.7s2.6-9.97,2.6-16.14c0-6.17-0.86-11.52-2.57-16.07
			c-1.71-4.55-4.19-8.06-7.43-10.53c-3.24-2.48-7.18-3.71-11.82-3.71c-4.73,0-8.71,1.28-11.95,3.85c-3.24,2.57-5.7,6.12-7.36,10.67
			c-1.67,4.55-2.5,9.82-2.5,15.8c0,6.03,0.84,11.36,2.53,15.97c1.69,4.62,4.14,8.22,7.36,10.81
			C1384.57,174.63,1388.54,175.92,1393.27,175.92z"/>
		<path class="st0" d="M1514.02,199.15c-10.67,0-19.84-2.17-27.52-6.52c-7.68-4.34-13.58-10.51-17.73-18.5
			c-4.14-7.99-6.21-17.46-6.21-28.4c0-10.67,2.07-20.03,6.21-28.09c4.14-8.06,9.98-14.34,17.53-18.84c7.54-4.5,16.4-6.75,26.57-6.75
			c6.84,0,13.23,1.09,19.15,3.28c5.92,2.18,11.1,5.46,15.53,9.83c4.43,4.37,7.89,9.85,10.37,16.44c2.47,6.6,3.71,14.31,3.71,23.13
			v7.9h-87.59V134.8h60.51c0-4.14-0.9-7.81-2.7-11.01c-1.8-3.2-4.29-5.71-7.46-7.53c-3.17-1.82-6.85-2.74-11.04-2.74
			c-4.37,0-8.23,1-11.58,3.01c-3.36,2-5.98,4.68-7.87,8.04c-1.89,3.35-2.86,7.08-2.9,11.18v16.95c0,5.13,0.95,9.57,2.87,13.3
			c1.91,3.74,4.63,6.62,8.14,8.64c3.51,2.03,7.67,3.04,12.49,3.04c3.2,0,6.12-0.45,8.78-1.35c2.66-0.9,4.93-2.25,6.82-4.05
			c1.89-1.8,3.33-4.01,4.32-6.62l26.61,1.76c-1.35,6.39-4.11,11.96-8.27,16.71c-4.17,4.75-9.52,8.44-16.07,11.08
			C1530.12,197.84,1522.57,199.15,1514.02,199.15z"/>
		<path class="st0" d="M1580.4,197.13V93.4h27.42v18.3h1.21c2.16-6.08,5.76-10.87,10.81-14.38c5.04-3.51,11.07-5.27,18.1-5.27
			c7.11,0,13.17,1.77,18.17,5.3c5,3.54,8.33,8.32,9.99,14.35h1.08c2.12-5.94,5.95-10.7,11.51-14.28c5.56-3.58,12.14-5.37,19.75-5.37
			c9.68,0,17.55,3.07,23.6,9.22c6.05,6.14,9.08,14.85,9.08,26.1v69.76h-28.7v-64.09c0-5.76-1.53-10.08-4.59-12.97
			c-3.06-2.88-6.89-4.32-11.48-4.32c-5.22,0-9.3,1.65-12.22,4.96c-2.93,3.31-4.39,7.67-4.39,13.07v63.34h-27.89v-64.7
			c0-5.09-1.45-9.14-4.36-12.16c-2.9-3.02-6.72-4.52-11.45-4.52c-3.2,0-6.07,0.8-8.61,2.4c-2.54,1.6-4.56,3.83-6.04,6.69
			c-1.49,2.86-2.23,6.2-2.23,10.03v62.26H1580.4z"/>
		<path class="st0" d="M1767.8,236.03c-3.65,0-7.06-0.28-10.23-0.84c-3.18-0.56-5.8-1.27-7.87-2.13l6.48-21.47
			c3.38,1.03,6.43,1.6,9.15,1.69c2.72,0.09,5.09-0.54,7.09-1.89c2-1.35,3.64-3.65,4.9-6.89l1.69-4.39L1741.8,93.4h30.25l21.47,76.18
			h1.08l21.68-76.18h30.46l-40.31,114.94c-1.94,5.58-4.56,10.45-7.87,14.62c-3.31,4.16-7.49,7.38-12.53,9.66
			C1780.99,234.89,1774.91,236.03,1767.8,236.03z"/>
	</g>
</g>
</svg>
